# xmcd
#
# Track frame offsets:
# 150
# 18216
# 36393
# 55490
# 75033
#
# Disc length: 1298 seconds
#
# Revision: 0
# Processed by: cddbd v1.5.1PL0 Copyright (c) Steve Scherf et al.
# Submitted via: Audion 3.0.2 (http://www.panic.com/audion/)
#
DISCID=2f051005
DTITLE=Narumi Namiki - Narumi and Brazilian sound 
DYEAR=1900
DGENRE=
TTITLE0=gh
TTITLE1=hg
TTITLE2=io
TTITLE3=op
TTITLE4=pp
EXTD=
EXTT0=
EXTT1=
EXTT2=
EXTT3=
EXTT4=
PLAYORDER=
